<svg
width="16"
height="17"
viewBox="0 0 16 17"
fill="none"
xmlns="http://www.w3.org/2000/svg"
>
<path
  fill-rule="evenodd"
  clip-rule="evenodd"
  d="M6 1.54688C5.17157 1.54688 4.5 2.21845 4.5 3.04688V3.54688H2.5H1.95248H1.5C1.22386 3.54688 1 3.77073 1 4.04688C1 4.32302 1.22386 4.54688 1.5 4.54688H2.04339L2.8367 13.2732C2.95376 14.5609 4.03342 15.5469 5.32643 15.5469H10.6736C11.9666 15.5469 13.0462 14.5609 13.1633 13.2732L13.9566 4.54688H14.5C14.7761 4.54688 15 4.32302 15 4.04688C15 3.77073 14.7761 3.54688 14.5 3.54688L14.0475 3.54688H13.5H11.5V3.04688C11.5 2.21845 10.8284 1.54688 10 1.54688H6ZM10.5 3.54688V3.04688C10.5 2.77073 10.2761 2.54688 10 2.54688H6C5.72386 2.54688 5.5 2.77073 5.5 3.04688V3.54688H10.5ZM5 4.54688H3.04752L3.83259 13.1827C3.90283 13.9553 4.55062 14.5469 5.32643 14.5469H10.6736C11.4494 14.5469 12.0972 13.9553 12.1674 13.1827L12.9525 4.54688H11H5ZM7 6.54688C7 6.27073 6.77614 6.04688 6.5 6.04688C6.22386 6.04688 6 6.27073 6 6.54688V11.5469C6 11.823 6.22386 12.0469 6.5 12.0469C6.77614 12.0469 7 11.823 7 11.5469V6.54688ZM9.5 6.04688C9.77614 6.04688 10 6.27073 10 6.54688V11.5469C10 11.823 9.77614 12.0469 9.5 12.0469C9.22386 12.0469 9 11.823 9 11.5469V6.54688C9 6.27073 9.22386 6.04688 9.5 6.04688Z"
  fill="#D33852"
/>
</svg>