<svg
width="16"
height="17"
viewBox="0 0 16 17"
fill="none"
xmlns="http://www.w3.org/2000/svg"
>
<path
  fillRule="evenodd"
  clipRule="evenodd"
  d="M1.5 11.5466C1.5 11.414 1.55268 11.2868 1.64645 11.193L10.2322 2.60723C11.2085 1.63092 12.7915 1.63092 13.7678 2.60723L13.9393 2.77881C14.9156 3.75512 14.9157 5.33803 13.9393 6.31434L5.35355 14.9001C5.25978 14.9939 5.13261 15.0466 5 15.0466H2C1.86739 15.0466 1.74021 14.9939 1.64645 14.9001C1.55268 14.8064 1.5 14.6792 1.5 14.5466V11.5466ZM2.5 11.7537L2.5 14.0466H4.79289L11.7929 7.04655L9.50002 4.75366L2.5 11.7537ZM10.2071 4.04655L12.5 6.33945L13.2322 5.60723C13.818 5.02145 13.818 4.0717 13.2322 3.48591L13.0607 3.31434C12.4749 2.72855 11.5251 2.72855 10.9393 3.31434L10.2071 4.04655Z"
  fill="#717171"
/>
<path
  d="M8 14.5466C8 14.2704 8.22386 14.0466 8.5 14.0466H13.5C13.7761 14.0466 14 14.2704 14 14.5466C14 14.8227 13.7761 15.0466 13.5 15.0466H8.5C8.22386 15.0466 8 14.8227 8 14.5466Z"
  fill="#717171"
/>
</svg>