<svg
width="16"
height="16"
viewBox="0 0 16 16"
fill="none"
xmlns="http://www.w3.org/2000/svg"
>
<path
  d="M9.35386 3.35386C10.2632 2.44455 11.7374 2.44455 12.6468 3.35386C13.5561 4.26316 13.5561 5.73744 12.6468 6.64675L10.7681 8.52543C9.79176 9.50174 8.20885 9.50174 7.23254 8.52543L6.85386 8.14675C6.6586 7.95149 6.34201 7.95149 6.14675 8.14675C5.95149 8.34201 5.95149 8.65859 6.14675 8.85386L6.52543 9.23254C7.89227 10.5994 10.1083 10.5994 11.4752 9.23253L13.3539 7.35386C14.6537 6.05402 14.6537 3.94658 13.3539 2.64675C12.054 1.34692 9.94658 1.34692 8.64675 2.64675L7.14675 4.14675C6.95149 4.34201 6.95149 4.65859 7.14675 4.85386C7.34201 5.04912 7.6586 5.04912 7.85386 4.85386L9.35386 3.35386Z"
  fill="#05B2C7"
/>
<path
  d="M5.23254 7.47517C6.20885 6.49886 7.79176 6.49886 8.76807 7.47517L9.14675 7.85385C9.34201 8.04911 9.65859 8.04911 9.85386 7.85385C10.0491 7.65858 10.0491 7.342 9.85386 7.14674L9.47518 6.76806C8.10834 5.40123 5.89226 5.40123 4.52543 6.76806L2.64675 8.64675C1.34692 9.94658 1.34692 12.054 2.64675 13.3539C3.94658 14.6537 6.05402 14.6537 7.35386 13.3539L8.85386 11.8539C9.04912 11.6586 9.04912 11.342 8.85386 11.1467C8.65859 10.9515 8.34201 10.9515 8.14675 11.1467L6.64675 12.6467C5.73744 13.5561 4.26316 13.5561 3.35386 12.6467C2.44455 11.7374 2.44455 10.2632 3.35385 9.35385L5.23254 7.47517Z"
  fill="#05B2C7"
/>
</svg>

