<svg
width="40"
height="40"
viewBox="0 0 40 40"
fill="none"
xmlns="http://www.w3.org/2000/svg"
>
<path
  d="M18.75 13.75C18.75 14.4404 19.3096 15 20 15C20.6904 15 21.25 14.4404 21.25 13.75C21.25 13.0596 20.6904 12.5 20 12.5C19.3096 12.5 18.75 13.0596 18.75 13.75Z"
  fill="#717171"
/>
<path
  d="M18.75 26.25C18.75 26.9404 19.3096 27.5 20 27.5C20.6904 27.5 21.25 26.9404 21.25 26.25C21.25 25.5597 20.6904 25 20 25C19.3096 25 18.75 25.5597 18.75 26.25Z"
  fill="#717171"
/>
<path
  d="M20 21.25C19.3096 21.25 18.75 20.6904 18.75 20C18.75 19.3096 19.3096 18.75 20 18.75C20.6904 18.75 21.25 19.3096 21.25 20C21.25 20.6904 20.6904 21.25 20 21.25Z"
  fill="#717171"
/>
</svg>